<svg height="512" viewBox="0 0 128 128" width="512" xmlns="http://www.w3.org/2000/svg"><path d="m114.263 15.557h-96.526a8 8 0 0 0 -8 8v66.26a8 8 0 0 0 8 8h36.843l-1.806 12.088h-9.292a3.156 3.156 0 0 0 -3.157 3.156v.227a3.156 3.156 0 0 0 3.156 3.155h45.038a3.156 3.156 0 0 0 3.156-3.156v-.227a3.156 3.156 0 0 0 -3.156-3.155h-9.293l-1.806-12.088h36.843a8 8 0 0 0 8-8v-66.26a8 8 0 0 0 -8-8z" fill="#e6e7e8"/><rect fill="#6dc9f7" height="80.26" rx="7" width="110.526" x="6.737" y="12.557"/><path d="m110.263 12.557h-96.526a7 7 0 0 0 -7 7v59.6h110.526v-59.6a7 7 0 0 0 -7-7z" fill="#d4fbff"/><path d="m110.263 12.557h-96.526a7 7 0 0 0 -7 7v3.368a7.368 7.368 0 0 1 7.368-7.368h95.795a7.368 7.368 0 0 1 7.368 7.368v-3.368a7 7 0 0 0 -7.005-7z" fill="#fff"/><rect fill="#0089ef" height="4.539" rx="2.156" width="49.349" x="37.326" y="106.905"/><path d="m72.259 92.817h-20.518l-2.105 14.088h24.728z" fill="#0089ef"/><path d="m93.228 83.491a2.106 2.106 0 1 0 2.106 2.109 2.106 2.106 0 0 0 -2.106-2.109z" fill="#fff"/><path d="m100.6 83.491a2.106 2.106 0 1 0 2.1 2.109 2.105 2.105 0 0 0 -2.1-2.109z" fill="#0089ef"/><path d="m107.965 83.491a2.106 2.106 0 1 0 2.106 2.106 2.106 2.106 0 0 0 -2.106-2.106z" fill="#fa759e"/><path d="m61.5 33.376c-17.663 0-28.981 13.608-28.981 13.608s11.318 13.607 28.981 13.607 28.982-13.607 28.982-13.607-11.319-13.608-28.982-13.608z" fill="#fff"/><circle cx="61.5" cy="46.984" fill="#0089ef" r="11.715"/><path d="m96.36 32.537 6.5-12.218 6.5 12.218v38.353a2.758 2.758 0 0 1 -2.759 2.758h-7.482a2.758 2.758 0 0 1 -2.759-2.758z" fill="#ffd7e5"/><path d="m96.36 32.537h13v38.353a2.758 2.758 0 0 1 -2.759 2.758h-7.482a2.758 2.758 0 0 1 -2.759-2.758z" fill="#0089ef"/><path d="m96.36 67.239v3.651a2.758 2.758 0 0 0 2.759 2.758h7.481a2.758 2.758 0 0 0 2.759-2.758v-3.651z" fill="#fa759e"/><path d="m15.3 40.911 2.848 31.431a3.579 3.579 0 0 0 7.128 0l2.848-31.431z" fill="#fa759e"/><path d="m25.2 32.002h-6.982l-2.921 8.909h12.824z" fill="#ffd7e5"/><g fill="#3a2c60"><path d="m110.264 11.557h-96.527a8.009 8.009 0 0 0 -8 8v8.461a1 1 0 0 0 2 0v-8.461a6.007 6.007 0 0 1 6-6h96.527a6.007 6.007 0 0 1 6 6v58.6h-108.527v-30.994a1 1 0 0 0 -2 0v38.654a8.009 8.009 0 0 0 8 8h36.843l-1.806 12.088h-9.293a3.159 3.159 0 0 0 -3.156 3.156v.227a3.159 3.159 0 0 0 3.156 3.155h45.037a3.159 3.159 0 0 0 3.157-3.155v-.227a3.159 3.159 0 0 0 -3.157-3.156h-9.292l-1.806-12.088h36.844a8.009 8.009 0 0 0 8-8v-66.26a8.009 8.009 0 0 0 -8-8zm-24.589 97.5v.227a1.157 1.157 0 0 1 -1.157 1.155h-45.037a1.157 1.157 0 0 1 -1.156-1.155v-.227a1.157 1.157 0 0 1 1.156-1.156h45.037a1.157 1.157 0 0 1 1.157 1.16zm-12.475-3.152h-22.4l1.8-12.088h18.8zm37.06-14.088h-96.523a6.007 6.007 0 0 1 -6-6v-5.662h108.527v5.662a6.007 6.007 0 0 1 -6 6z"/><path d="m6.737 44.106a1 1 0 0 0 1-1v-10.877a1 1 0 0 0 -2 0v10.877a1 1 0 0 0 1 1z"/><path d="m61.5 61.591c17.926 0 29.276-13.4 29.75-13.968a1 1 0 0 0 0-1.279c-.474-.571-11.824-13.968-29.75-13.968s-29.276 13.4-29.75 13.968a1 1 0 0 0 0 1.279c.474.57 11.824 13.968 29.75 13.968zm0-27.215c14.784 0 25.141 9.959 27.634 12.607-2.493 2.649-12.85 12.608-27.634 12.608s-25.142-9.959-27.634-12.608c2.492-2.648 12.85-12.607 27.634-12.607z"/><circle cx="61.5" cy="46.983" r="5.116" transform="matrix(.973 -.23 .23 .973 -9.149 15.387)"/><path d="m106.6 74.648a3.763 3.763 0 0 0 3.759-3.758v-38.353a1 1 0 0 0 -.117-.47l-6.5-12.218a1.041 1.041 0 0 0 -1.766 0l-6.5 12.218a1 1 0 0 0 -.117.47v38.353a3.763 3.763 0 0 0 3.759 3.758zm-9.24-41.111h11v32.7h-11zm6.445-9.31 3.89 7.31h-9.67l3.887-7.31zm-6.445 46.663v-2.651h11v2.651a1.761 1.761 0 0 1 -1.759 1.758h-7.482a1.761 1.761 0 0 1 -1.759-1.758z"/><path d="m14.3 41 2.847 31.431a4.579 4.579 0 0 0 9.121 0l2.849-31.431a1.015 1.015 0 0 0 -.046-.4l-2.765-8.433a7.121 7.121 0 0 0 1.215-5.538c-1.054-4.287-5.694-8.79-5.891-8.98a1 1 0 0 0 -1.685.855 7.937 7.937 0 0 1 -.348 3.812 5.993 5.993 0 0 1 -1.333 1.406 6.716 6.716 0 0 0 -2.464 3.355c-.518 1.978.631 4.1 1.3 5.124l-2.753 8.4a1.015 1.015 0 0 0 -.047.399zm4.586-7.829h5.644l2.21 6.739h-10.063zm5.39 39.08a2.579 2.579 0 0 1 -5.136 0l-2.748-30.34h10.634z"/></g></svg>