<svg id="Layer_1" enable-background="new 0 0 128 128" height="512" viewBox="0 0 128 128" width="512" xmlns="http://www.w3.org/2000/svg"><g><g><path d="m119.338 22.381h-57.978c-1.769 0-3.426-.868-4.433-2.322l-2.578-3.725c-1.38-1.993-3.651-3.184-6.077-3.184h-35.61c-2.757 0-5 2.243-5 5v95.698c0 2.757 2.243 5 5 5h106.676c2.757 0 5-2.243 5-5v-86.467c0-2.756-2.243-5-5-5z" fill="#e6e7e8"/></g><g><g><path d="m119.337 34.163h-114.675v75.687c0 2.209 1.791 4 4 4h106.675c2.209 0 4-1.791 4-4z" fill="#d4fbff"/></g><g><g><g fill="#0089ef"><path d="m63.825 65.028-5.811-6.592-12.059 12.06 6.591 5.811z"/><path d="m75.683 78.479-9.686 9.686 18.665 16.455c2.097 1.849 5.271 1.749 7.248-.228s2.077-5.151.228-7.248z"/></g><g><path d="m38.644 58.638 7.311 11.858 12.059-12.06-11.858-7.31z" fill="#6dc9f7"/></g><path d="m46.149 51.133c-.143-1.14-.858-5.045-4.065-6.985-5.436-3.289-15.182-3.103-15.182-3.103s3.521 2.685 4.267 5.264c.745 2.579-.83 5.928.888 8.865 1.465 2.505 5.448 3.286 6.59 3.462z" fill="#ffd7e5"/></g><g><g><g><path d="m81.412 47.44 16.633-3.982-3.979 16.637-44.79 44.79c-1.285 1.285-3.369 1.285-4.655 0l-8-8c-1.285-1.285-1.285-3.369 0-4.655z" fill="#ffd7e5"/></g></g><g><g><path d="m81.412 47.44 12.655 12.655-44.79 44.79c-1.285 1.285-3.369 1.285-4.655 0l-8-8c-1.285-1.285-1.285-3.369 0-4.655z" fill="#0089ef"/></g></g><g><path d="m39.702 89.151-3.08 3.08c-1.285 1.285-1.285 3.369 0 4.655l8 8c1.285 1.285 3.369 1.285 4.655 0l3.08-3.08z" fill="#fa759e"/></g></g></g><g><path d="m115.337 110.849h-106.675c-2.209 0-4-1.791-4-4v3c0 2.209 1.791 4 4 4h106.675c2.209 0 4-1.791 4-4v-3c0 2.209-1.791 4-4 4z" fill="#fff"/></g><g><path d="m52.106 16.629-2.579-3.725c-1.194-1.724-3.157-2.753-5.254-2.753h-35.611c-2.209 0-4 1.791-4 4v20.012h114.675v-10.781c0-2.209-1.791-4-4-4h-57.977c-2.097 0-4.061-1.029-5.254-2.753z" fill="#0089ef"/></g><g><g><circle cx="36.972" cy="18.791" fill="#fff" r="2.727"/></g><g><circle cx="27.065" cy="18.791" fill="#d4fbff" r="2.727"/></g><g><circle cx="17.158" cy="18.791" fill="#fa759e" r="2.727"/></g><g><path d="m109.569 29.29h-93.75c-.829 0-1.5-.671-1.5-1.5s.671-1.5 1.5-1.5h93.75c.828 0 1.5.671 1.5 1.5s-.671 1.5-1.5 1.5z" fill="#6dc9f7"/></g></g><g fill="#3a2c60"><path d="m97.814 42.486-16.634 3.982c-.18.043-.344.135-.475.266l-16.835 16.834-5.107-5.793c-.065-.074-.141-.138-.225-.19l-11.473-7.073c-.282-1.646-1.254-5.277-4.464-7.219-5.619-3.399-15.308-3.254-15.719-3.248-.425.008-.798.285-.931.688-.132.404.005.848.343 1.106.907.693 3.378 2.898 3.913 4.746.256.886.179 1.976.097 3.129-.132 1.857-.282 3.963.888 5.963 1.504 2.57 4.995 3.526 6.835 3.863l7.077 11.479c.052.084.116.16.19.225l5.792 5.107-15.171 15.172c-1.673 1.673-1.673 4.396 0 6.069l8 8c.81.811 1.888 1.257 3.034 1.257s2.224-.447 3.034-1.257l16.057-16.056 17.96 15.834c1.19 1.049 2.678 1.569 4.162 1.569 1.618 0 3.232-.618 4.455-1.84 2.344-2.345 2.463-6.129.271-8.616l-15.834-17.961 17.72-17.72c.131-.13.223-.295.266-.475l3.979-16.637c.081-.338-.02-.694-.266-.939-.245-.245-.601-.347-.939-.265zm-45.458 57.905-11.24-11.241 40.297-40.296 11.24 11.24zm-19.437-45.722c-.858-1.466-.742-3.091-.62-4.812.091-1.277.185-2.598-.17-3.826-.413-1.428-1.525-2.84-2.555-3.912 3.194.184 8.556.806 11.992 2.885 2.478 1.499 3.274 4.398 3.518 5.78l-6.779 6.779c-2.094-.4-4.477-1.339-5.386-2.894zm6.991 4.117 6.393-6.394 10.109 6.232-10.27 10.27zm7.505 11.664 10.553-10.553 4.486 5.088-9.951 9.951zm1.154 33.728c-.866.866-2.374.866-3.24 0l-8-8c-.893-.894-.893-2.347 0-3.241l2.373-2.373 11.24 11.241zm42.819-6.373c1.496 1.697 1.415 4.28-.185 5.88-1.602 1.601-4.184 1.68-5.881.185l-17.866-15.75 8.181-8.181zm2.121-39.681-10.126-10.127 10.172-2.435 2.388 2.388z"/><path d="m115.337 18.382h-22.587c-.553 0-1 .448-1 1s.447 1 1 1h22.587c1.654 0 3 1.346 3 3v9.781h-112.674v-19.012c0-1.654 1.346-3 3-3h35.61c1.769 0 3.426.868 4.432 2.322l2.579 3.725c1.38 1.994 3.652 3.184 6.077 3.184h14.89c.553 0 1-.448 1-1s-.447-1-1-1h-14.891c-1.769 0-3.425-.868-4.432-2.322l-2.579-3.725c-1.38-1.993-3.651-3.184-6.077-3.184h-35.609c-2.757 0-5 2.243-5 5v95.699c0 2.757 2.243 5 5 5h106.675c2.757 0 5-2.243 5-5v-86.468c-.001-2.757-2.244-5-5.001-5zm0 94.468h-106.675c-1.654 0-3-1.346-3-3v-74.687h112.675v74.687c0 1.654-1.346 3-3 3z"/><path d="m76.75 20.382h10.916c.553 0 1-.448 1-1s-.447-1-1-1h-10.916c-.553 0-1 .448-1 1s.447 1 1 1z"/></g></g></g></svg>