<svg height="512" viewBox="0 0 128 128" width="512" xmlns="http://www.w3.org/2000/svg"><path d="m123.4 103.348h-9v-58.526a7.008 7.008 0 0 0 -7-7h-5.028v-18.048a3 3 0 0 0 -3-3h-66.745a3 3 0 0 0 -3 3v18.048h-5.027a7.008 7.008 0 0 0 -7 7v58.526h-8.995a1 1 0 0 0 -1 1v3.933a6.953 6.953 0 0 0 6.945 6.945h102.9a6.953 6.953 0 0 0 6.947-6.945v-3.933a1 1 0 0 0 -.997-1z" fill="#e6e7e8"/><path d="m109.4 100.348v-59.526a6 6 0 0 0 -6-6h-82.8a6 6 0 0 0 -6 6v59.526z" fill="#6dc9f7"/><path d="m100.4 34.822h3a6 6 0 0 1 6 6v59.526h-3v-59.526a6 6 0 0 0 -6-6z" fill="#fff"/><path d="m102.372 100.348v-54.689a2 2 0 0 0 -2-2h-76.745a2 2 0 0 0 -2 2v54.689z" fill="#d4fbff"/><path d="m4.605 100.348v3.933a5.945 5.945 0 0 0 5.945 5.945h102.9a5.946 5.946 0 0 0 5.947-5.945v-3.933z" fill="#0089ef"/><path d="m4.605 100.348v3.933a5.945 5.945 0 0 0 5.945 5.945h102.9a5.946 5.946 0 0 0 5.947-5.945v-3.933z" fill="#0089ef"/><path d="m42.949 100.348v1.991a3.009 3.009 0 0 0 3.009 3.009h32.083a3.01 3.01 0 0 0 3.01-3.009v-1.991z" fill="#6dc9f7"/><path d="m97.372 100.348v-84.574a2 2 0 0 0 -2-2h-66.745a2 2 0 0 0 -2 2v84.574z" fill="#ffd7e5"/><path d="m41.693 39.494 3.644 15.224 11.583-11.583z" fill="#ffd7e5"/><path d="m45.746 47.764h16.38v7.939h-16.38z" fill="#fa759e" transform="matrix(.707 -.707 .707 .707 -20.784 53.291)"/><path d="m86.535 72.75-13.487-13.486-11.582 11.582 13.486 13.486a3.011 3.011 0 0 0 4.26 0l7.323-7.322a3.013 3.013 0 0 0 0-4.26z" fill="#fa759e"/><path d="m72.134 81.514 2.818 2.818a3.011 3.011 0 0 0 4.26 0l7.323-7.322a3.013 3.013 0 0 0 0-4.26l-2.819-2.819z" fill="#0089ef"/><path d="m53.778 33.188h14.87v54.794h-14.87z" fill="#d4fbff" transform="matrix(.707 .707 -.707 .707 60.769 -25.539)"/><g fill="#3a2c60"><path d="m119.4 99.348h-9v-58.526a7.008 7.008 0 0 0 -7-7h-5.028v-18.048a3 3 0 0 0 -3-3h-23.872a1 1 0 0 0 0 2h23.872a1 1 0 0 1 1 1v83.574h-68.744v-83.574a1 1 0 0 1 1-1h20.192a1 1 0 0 0 0-2h-20.192a3 3 0 0 0 -3 3v18.048h-5.028a7.008 7.008 0 0 0 -7 7v58.526h-8.995a1 1 0 0 0 -1 1v3.933a6.952 6.952 0 0 0 6.945 6.945h102.9a6.953 6.953 0 0 0 6.947-6.945v-3.933a1 1 0 0 0 -.997-1zm-16-63.526a5.006 5.006 0 0 1 5 5v58.526h-5.029v-53.689a3 3 0 0 0 -3-3h-2v-6.837zm-80.772 63.526v-53.689a1 1 0 0 1 1-1h2v54.689zm78.744 0h-3v-54.689h2a1 1 0 0 1 1 1zm-85.772-58.526a5.006 5.006 0 0 1 5-5h5.029v6.837h-2a3 3 0 0 0 -3 3v53.689h-5.029zm102.8 63.459a4.951 4.951 0 0 1 -4.947 4.945h-102.903a4.95 4.95 0 0 1 -4.945-4.945v-2.933h112.795z"/><path d="m54 14.774h12.167a1 1 0 0 0 0-2h-12.167a1 1 0 0 0 0 2z"/><path d="m86.55 47.176a1 1 0 0 0 0-1.414l-10.515-10.514a1 1 0 0 0 -1.414 0l-12.087 12.087-4.907-4.907a.993.993 0 0 0 -.475-.265l-15.227-3.642a1 1 0 0 0 -1.2 1.206l3.645 15.224c.034.141 3.63 3.8 5.177 5.376l-13.671 13.666a1 1 0 0 0 0 1.414l10.514 10.515a1 1 0 0 0 1.414 0l13.662-13.662 12.779 12.78a4.018 4.018 0 0 0 5.675 0l7.321-7.323a4.01 4.01 0 0 0 0-5.674l-12.779-12.779zm-42.862-3.642 2.046-2.046 9.215 2.2-9.055 9.055zm3.064 11.184 10.168-10.169 4.2 4.2-10.168 10.169zm.348 29.082-9.1-9.1 37.328-37.331 9.1 9.1-3.08 3.08-2.169-2.17a1 1 0 0 0 -1.414 1.414l2.169 2.17-1.562 1.562-.979-.98a1 1 0 0 0 -1.414 1.414l.979.98-1.558 1.561-2.17-2.169a1 1 0 1 0 -1.414 1.414l2.17 2.17-1.562 1.561-.98-.979a1 1 0 0 0 -1.414 1.414l.98.98-1.562 1.561-2.17-2.169a1 1 0 1 0 -1.416 1.417l2.17 2.169-1.562 1.559-.979-.979a1 1 0 0 0 -1.414 1.414l.979.979-1.562 1.558-2.169-2.17a1 1 0 0 0 -1.414 1.414l2.169 2.17-1.561 1.566-.98-.98a1 1 0 0 0 -1.414 1.414l.979.98-1.561 1.561-2.17-2.169a1 1 0 1 0 -1.414 1.414l2.17 2.17-1.562 1.561-.979-.979a1 1 0 1 0 -1.415 1.414l.98.979-1.562 1.562-2.169-2.17a1 1 0 1 0 -1.415 1.414l2.17 2.17zm25.948-23.122 9.252 9.253-10.167 10.169-9.253-9.254zm13.369 14.2a2 2 0 0 1 -.59 1.423l-7.322 7.322a2.015 2.015 0 0 1 -2.846 0l-2.112-2.111 10.169-10.167 2.111 2.112a2 2 0 0 1 .59 1.423z"/></g></svg>