<svg xmlns="http://www.w3.org/2000/svg" width="1076.459" height="469.147" viewBox="0 0 1076.459 469.147">
  <g id="Group_1" data-name="Group 1" transform="translate(52.298 24.994)">
    <circle id="Ellipse_1" data-name="Ellipse 1" cx="68.573" cy="68.573" r="68.573" transform="translate(323.187 89.262)" fill="#c86b85"/>
    <path id="Path_1" data-name="Path 1" d="M307.638,442.615,227.09,363.249l-19.975-19.683-59.62-58.744-73.906,78.9L0,442.285" fill="#f2f2f2"/>
    <path id="Path_2" data-name="Path 2" d="M704.31,443.094H159.71l67.38-73.04,124.49-146.02,8.39-9.84L472.58,82.1l77.92,123.41,2.04,3.23,99.13,156.98Z" fill="#f2f2f2"/>
    <path id="Path_3" data-name="Path 3" d="M974,442.615,839.483,283.895l-65.944-77.8L709.8,286,651.67,358.918l-66.49,83.367" fill="#f2f2f2"/>
    <path id="Path_4" data-name="Path 4" d="M207.115,343.566l-35.493,23.8-41.9-16.508L73.589,363.718l73.906-78.9Z" opacity="0.1"/>
    <path id="Path_5" data-name="Path 5" d="M550.5,205.514,538.61,226.4l-26.66-27.93L482.74,226.4l-16.51-31.74L439.56,226.4l-7.62-20.31L414.17,226.4l-31.75-20.31-22.45,8.1L472.58,82.1Z" opacity="0.1"/>
    <path id="Path_6" data-name="Path 6" d="M839.483,283.895l-32.928,40.292-26.667-31.746-40.635,33.016L709.8,286l63.735-79.913Z" opacity="0.1"/>
    <path id="Path_7" data-name="Path 7" d="M952.889,566.306l-1.777-.918c23.082-44.624,10.739-102.575-3.679-143.332a439.286,439.286,0,0,0-37.278-78.675l1.69-1.068a441.543,441.543,0,0,1,37.472,79.075C963.868,462.518,976.3,521.047,952.889,566.306Z" transform="translate(-113 -122.153)" fill="#2f2e41"/>
    <rect id="Rectangle_1" data-name="Rectangle 1" width="72.18" height="1.999" transform="translate(844.033 291.522) rotate(-79.645)" fill="#2f2e41"/>
    <rect id="Rectangle_2" data-name="Rectangle 2" width="2.001" height="98.351" transform="matrix(0.732, -0.681, 0.681, 0.732, 769.267, 282.373)" fill="#2f2e41"/>
    <rect id="Rectangle_3" data-name="Rectangle 3" width="58.009" height="2" transform="matrix(0.586, -0.81, 0.81, 0.586, 857.2, 407.117)" fill="#2f2e41"/>
    <circle id="Ellipse_2" data-name="Ellipse 2" cx="10" cy="10" r="10" transform="translate(853 181.694)" fill="#c86b85"/>
    <circle id="Ellipse_3" data-name="Ellipse 3" cx="10" cy="10" r="10" transform="translate(744 258.694)" fill="#3f3d56"/>
    <circle id="Ellipse_4" data-name="Ellipse 4" cx="10" cy="10" r="10" transform="translate(788 268.694)" fill="#3f3d56"/>
    <circle id="Ellipse_5" data-name="Ellipse 5" cx="10" cy="10" r="10" transform="translate(768 307.694)" fill="#c86b85"/>
    <circle id="Ellipse_6" data-name="Ellipse 6" cx="10" cy="10" r="10" transform="translate(893 332.694)" fill="#3f3d56"/>
    <circle id="Ellipse_7" data-name="Ellipse 7" cx="10" cy="10" r="10" transform="translate(860 343.694)" fill="#3f3d56"/>
    <circle id="Ellipse_8" data-name="Ellipse 8" cx="10" cy="10" r="10" transform="translate(883 375.694)" fill="#3f3d56"/>
    <circle id="Ellipse_9" data-name="Ellipse 9" cx="10" cy="10" r="10" transform="translate(778 193.694)" fill="#3f3d56"/>
    <path id="Path_8" data-name="Path 8" d="M703.889,564.306l-1.777-.918c23.082-44.624,10.739-102.575-3.679-143.332a439.286,439.286,0,0,0-37.278-78.675l1.69-1.068a441.538,441.538,0,0,1,37.472,79.075C714.868,460.518,727.3,519.047,703.889,564.306Z" transform="translate(-113 -122.153)" fill="#2f2e41"/>
    <rect id="Rectangle_4" data-name="Rectangle 4" width="72.18" height="1.999" transform="translate(595.031 289.521) rotate(-79.645)" fill="#2f2e41"/>
    <rect id="Rectangle_5" data-name="Rectangle 5" width="2.001" height="98.351" transform="matrix(0.732, -0.681, 0.681, 0.732, 520.268, 280.373)" fill="#2f2e41"/>
    <rect id="Rectangle_6" data-name="Rectangle 6" width="58.009" height="2" transform="matrix(0.586, -0.81, 0.81, 0.586, 608.199, 405.116)" fill="#2f2e41"/>
    <circle id="Ellipse_10" data-name="Ellipse 10" cx="10" cy="10" r="10" transform="translate(604 179.694)" fill="#3f3d56"/>
    <circle id="Ellipse_11" data-name="Ellipse 11" cx="10" cy="10" r="10" transform="translate(495 256.694)" fill="#3f3d56"/>
    <circle id="Ellipse_12" data-name="Ellipse 12" cx="10" cy="10" r="10" transform="translate(539 266.694)" fill="#3f3d56"/>
    <circle id="Ellipse_13" data-name="Ellipse 13" cx="10" cy="10" r="10" transform="translate(519 305.694)" fill="#3f3d56"/>
    <path id="Path_35" data-name="Path 35" d="M10,0A10,10,0,1,1,0,10,10,10,0,0,1,10,0Z" transform="translate(644 330.694)" fill="#c86b85"/>
    <circle id="Ellipse_15" data-name="Ellipse 15" cx="10" cy="10" r="10" transform="translate(611 341.694)" fill="#3f3d56"/>
    <circle id="Ellipse_16" data-name="Ellipse 16" cx="10" cy="10" r="10" transform="translate(634 373.694)" fill="#3f3d56"/>
    <circle id="Ellipse_17" data-name="Ellipse 17" cx="10" cy="10" r="10" transform="translate(529 191.694)" fill="#3f3d56"/>
    <path id="Path_9" data-name="Path 9" d="M286.111,564.306l1.777-.918c-23.082-44.624-10.739-102.575,3.679-143.332a439.3,439.3,0,0,1,37.278-78.675l-1.691-1.068a441.537,441.537,0,0,0-37.472,79.075C275.132,460.518,262.7,519.047,286.111,564.306Z" transform="translate(-113 -122.153)" fill="#2f2e41"/>
    <rect id="Rectangle_7" data-name="Rectangle 7" width="1.999" height="72.18" transform="translate(154.03 218.869) rotate(-10.355)" fill="#2f2e41"/>
    <rect id="Rectangle_8" data-name="Rectangle 8" width="98.351" height="2.001" transform="matrix(0.681, -0.732, 0.732, 0.681, 175.268, 351.014)" fill="#2f2e41"/>
    <rect id="Rectangle_9" data-name="Rectangle 9" width="2" height="58.009" transform="matrix(0.81, -0.586, 0.586, 0.81, 120.199, 359.273)" fill="#2f2e41"/>
    <circle id="Ellipse_18" data-name="Ellipse 18" cx="10" cy="10" r="10" transform="translate(140 179.694)" fill="#3f3d56"/>
    <circle id="Ellipse_19" data-name="Ellipse 19" cx="10" cy="10" r="10" transform="translate(249 256.694)" fill="#3f3d56"/>
    <circle id="Ellipse_20" data-name="Ellipse 20" cx="10" cy="10" r="10" transform="translate(205 266.694)" fill="#3f3d56"/>
    <circle id="Ellipse_21" data-name="Ellipse 21" cx="10" cy="10" r="10" transform="translate(225 305.694)" fill="#3f3d56"/>
    <circle id="Ellipse_22" data-name="Ellipse 22" cx="10" cy="10" r="10" transform="translate(100 330.694)" fill="#3f3d56"/>
    <circle id="Ellipse_23" data-name="Ellipse 23" cx="10" cy="10" r="10" transform="translate(133 341.694)" fill="#3f3d56"/>
    <circle id="Ellipse_24" data-name="Ellipse 24" cx="10" cy="10" r="10" transform="translate(110 373.694)" fill="#c86b85"/>
    <circle id="Ellipse_25" data-name="Ellipse 25" cx="10" cy="10" r="10" transform="translate(215 191.694)" fill="#3f3d56"/>
    <rect id="Rectangle_10" data-name="Rectangle 10" width="974" height="2" transform="translate(0 441.694)" fill="#2f2e41"/>
    <path id="Path_32" data-name="Path 32" d="M334.452,202.533A45.441,45.441,0,0,0,259.7,218.666L343.16,214.8a45.355,45.355,0,0,0-8.708-12.266Z" transform="translate(-113 -122.153)" fill="#f2f2f2"/>
    <path id="Path_33" data-name="Path 33" d="M514.452,135.533A45.441,45.441,0,0,0,439.7,151.666L523.16,147.8A45.354,45.354,0,0,0,514.452,135.533Z" transform="translate(334 -147.153)" fill="#f2f2f2"/>
    <path id="Path_34" data-name="Path 34" d="M831.452,302.533a45.441,45.441,0,0,0-74.75,16.133L840.16,314.8A45.357,45.357,0,0,0,831.452,302.533Z" transform="translate(-113 -122.153)" fill="#f2f2f2"/>
    <path id="Path_36" data-name="Path 36" d="M514.452,135.533A45.441,45.441,0,0,0,439.7,151.666L523.16,147.8A45.354,45.354,0,0,0,514.452,135.533Z" transform="translate(-492 -117.153)" fill="#f2f2f2"/>
    <path id="Path_37" data-name="Path 37" d="M514.452,135.533A45.441,45.441,0,0,0,439.7,151.666L523.16,147.8A45.354,45.354,0,0,0,514.452,135.533Z" transform="translate(501 -55.153)" fill="#f2f2f2"/>
  </g>
</svg>
